<?xml version="1.0" standalone="no"?>
<!DOCTYPE svg PUBLIC "-//W3C//DTD SVG 20010904//EN"
 "http://www.w3.org/TR/2001/REC-SVG-20010904/DTD/svg10.dtd">
<svg version="1.0" xmlns="http://www.w3.org/2000/svg"
 width="700.000000pt" height="700.000000pt" viewBox="0 0 700.000000 700.000000"
 preserveAspectRatio="xMidYMid meet">
<metadata>
Created by potrace 1.14, written by Peter Selinger 2001-2017
</metadata>
<g transform="translate(0.000000,700.000000) scale(0.100000,-0.100000)"
fill="#000000" stroke="none">
<path d="M3350 6764 c-552 -87 -1127 -378 -1539 -779 -265 -259 -448 -526
-575 -842 -124 -309 -176 -619 -176 -1053 0 -102 -5 -268 -10 -370 -55 -1010
-247 -1679 -584 -2029 -158 -165 -263 -333 -301 -481 -12 -46 -16 -94 -13
-166 3 -93 6 -107 41 -176 26 -54 54 -91 93 -128 149 -135 311 -164 649 -116
345 49 479 60 730 60 186 0 262 -4 340 -18 156 -27 321 -87 495 -178 375 -197
466 -235 681 -280 91 -20 135 -22 344 -22 341 0 445 21 846 174 326 125 474
162 726 182 171 13 303 6 573 -33 133 -20 197 -23 450 -23 269 0 303 2 390 22
270 62 370 193 330 431 -18 105 -64 188 -180 321 -128 146 -225 290 -300 444
-156 321 -188 529 -148 946 10 96 29 292 43 435 39 406 49 669 36 950 -29 597
-93 888 -286 1280 -194 394 -498 748 -856 998 -322 223 -684 369 -1083 438
-162 28 -573 36 -716 13z m-1013 -1586 c120 -91 364 -194 573 -242 41 -10 81
-20 88 -22 9 -3 -9 -28 -49 -72 -83 -90 -164 -215 -207 -320 -72 -177 -101
-431 -68 -589 79 -372 359 -675 732 -789 84 -27 100 -28 294 -28 184 -1 214 1
289 22 230 63 466 232 594 425 55 82 126 237 126 272 0 17 7 62 16 100 38 164
28 345 -27 515 -24 76 -90 211 -124 257 -13 17 -24 38 -24 45 0 7 -20 37 -45
65 -44 50 -45 53 -23 57 363 73 523 130 662 236 l65 48 58 -78 c314 -426 403
-930 248 -1412 -121 -380 -422 -737 -797 -948 l-58 -32 -961 2 -961 1 -91 55
c-418 254 -700 634 -799 1074 -20 92 -23 131 -23 315 0 183 3 223 23 314 60
264 174 494 350 704 36 42 66 77 68 77 2 0 34 -23 71 -52z"/>
</g>
</svg>
