<?xml version="1.0" encoding="UTF-8" standalone="no"?>
<!-- Generator: Adobe Illustrator 22.1.0, SVG Export Plug-In . SVG Version: 6.00 Build 0)  -->
<svg id="Layer_1" xmlns:rdf="http://www.w3.org/1999/02/22-rdf-syntax-ns#" xmlns="http://www.w3.org/2000/svg" xml:space="preserve" viewBox="0 0 266.20001 266.20001" height="266.2" width="266.2" version="1.1" xmlns:i="&amp;ns_ai;" y="0px" x="0px" xmlns:cc="http://creativecommons.org/ns#" xmlns:dc="http://purl.org/dc/elements/1.1/"><metadata id="metadata3889"><rdf:RDF><cc:Work rdf:about=""><dc:format>image/svg+xml</dc:format><dc:type rdf:resource="http://purl.org/dc/dcmitype/StillImage"/><dc:title/></cc:Work></rdf:RDF></metadata>
<style id="style3864" type="text/css">
	.st0{fill:#772953;}
	.st1{fill:#FFFFFF;}
</style>
<g id="g3880" i:extraneous="self" transform="translate(-66.5,-67)">
		<path id="path3866" d="m199.6 67c-73.5 0-133.1 59.6-133.1 133.1 0 49.6 27.1 92.8 67.3 115.7 5.7 3.2 11.6 6.1 17.8 8.4 14.9 5.8 31.1 9 48 9 17.4 0 34.1-3.4 49.3-9.5 6.1-2.4 11.9-5.3 17.5-8.5 39.6-23.1 66.3-66 66.3-115.1 0-73.5-59.6-133.1-133.1-133.1z" class="st0" fill="#772953"/>
		<g id="g3878">
			<polygon id="polygon3868" points="221.7 158.2 221.7 220.9 122.6 122.4" fill="#fff" class="st1"/>
			<polygon id="polygon3870" points="199.2 200.4 150 292.6 220.8 221.8" fill="#fff" class="st1"/>
			<polygon id="polygon3872" points="223 158.9 223 219.6 265.1 177.5" fill="#fff" class="st1"/>
			<g id="g3876">
				<polygon id="polygon3874" points="284.4 158.2 224.9 158.2 301.4 192.2" fill="#fff" class="st1"/>
			</g>
		</g>
	</g>
</svg>
