<svg width="48" height="48" xmlns="http://www.w3.org/2000/svg" xmlns:xlink="http://www.w3.org/1999/xlink" viewBox="0 0 100 100"><defs><linearGradient id="e"><stop offset="0" stop-color="#2d2d2d"/><stop offset="1" stop-color="#1e1e1e"/></linearGradient><linearGradient id="d"><stop offset="0" stop-color="#ec2c79"/><stop offset="1" stop-color="#cb155a"/></linearGradient><linearGradient id="c"><stop offset="0" stop-color="#85971c"/><stop offset=".2" stop-color="#a7b925"/><stop offset="1" stop-color="#c0d22c"/></linearGradient><linearGradient id="b"><stop offset="0" stop-color="#acc229"/><stop offset="1" stop-color="#c0d22c"/></linearGradient><linearGradient id="a"><stop offset="0" stop-color="#f8ffff"/><stop offset="1" stop-color="#e6e6e6"/></linearGradient><linearGradient xlink:href="#a" id="i" x1="107.8" y1="119.7" x2="107.7" y2="148.1" gradientUnits="userSpaceOnUse" gradientTransform="translate(-81.2 78.5) scale(1.23982)"/><linearGradient xlink:href="#b" id="q" x1="108.7" y1="120.3" x2="108.7" y2="108.5" gradientUnits="userSpaceOnUse" gradientTransform="translate(-81.2 77.8) scale(1.23982)"/><linearGradient xlink:href="#c" id="f" x1="107.4" y1="172.6" x2="107.4" y2="115.1" gradientUnits="userSpaceOnUse" gradientTransform="translate(-81.2 78.5) scale(1.23982)"/><filter id="o" x="0" width="1" y="0" height="1" color-interpolation-filters="sRGB"><feGaussianBlur stdDeviation=".1"/></filter><filter id="k" x="0" width="1" y="0" height="1" color-interpolation-filters="sRGB"><feGaussianBlur stdDeviation=".1"/></filter><filter id="m" x="0" width="1" y="0" height="1" color-interpolation-filters="sRGB"><feGaussianBlur/></filter><filter id="n" x="0" width="1" y="0" height="1" color-interpolation-filters="sRGB"><feGaussianBlur stdDeviation=".1"/></filter><filter id="p" x="0" width="1" y="0" height="1" color-interpolation-filters="sRGB"><feGaussianBlur stdDeviation=".1"/></filter><filter id="r" x="0" width="1" y="0" height="1" color-interpolation-filters="sRGB"><feGaussianBlur stdDeviation=".1"/></filter><filter id="g" x="0" width="1" y="0" height="1" color-interpolation-filters="sRGB"><feGaussianBlur stdDeviation=".1"/></filter><filter id="h" x="0" width="1" y="0" height="1" color-interpolation-filters="sRGB"><feGaussianBlur stdDeviation=".1"/></filter><radialGradient xlink:href="#d" id="j" cx="108.2" cy="128.5" fx="108.2" fy="128.5" r="22" gradientTransform="matrix(.55001 0 0 .53995 -6.3 169.2)" gradientUnits="userSpaceOnUse"/><radialGradient xlink:href="#e" id="l" cx="108.2" cy="128.5" fx="108.2" fy="128.5" r="22" gradientTransform="matrix(.275 0 0 .26997 23.4 204)" gradientUnits="userSpaceOnUse"/></defs><g transform="translate(0 -197)"><path d="M51.6 200.1c-12.6 0-36.4 11.5-36.4 36.6 0 30.5-8.4 35.9-9.5 37.2-7.4 8.4-2.3 15.6 5.8 14.4 15.8-2.4 19.5-1 26 2.6a24 24 0 0 0 13.9 3.5c8.4-.2 11.4-3.8 19.3-5 8.6-1.1 9.5 1.3 20.4.6 6.7-.7 7.4-3.7 6.3-7.7-.8-2.1-2.5-3.2-4.5-6-2.7-4-5.2-9.7-4.3-15.3.5-8.2 2-14.2 1-25.8a37.6 37.6 0 0 0-38-35.1z" fill="url(#f)"/><ellipse cx="53.2" cy="239.5" rx="21.8" ry="19.5" transform="translate(-13 -58) scale(1.23982)" fill="#f8ffff" fill-opacity=".3" filter="url(#g)"/><ellipse cx="53.2" cy="237.6" rx="21.8" ry="19.5" transform="translate(-13 -58) scale(1.23982)" fill-opacity=".1" filter="url(#h)"/><ellipse cx="52.9" cy="237.9" rx="27" ry="24.1" fill="url(#i)"/><ellipse cx="53.2" cy="238.6" rx="12" ry="11.8" transform="translate(-13 -58) scale(1.23982)" fill="url(#j)" filter="url(#k)"/><ellipse cx="53.2" cy="238.6" rx="6" ry="5.9" transform="translate(-13 -58) scale(1.23982)" fill="url(#l)" filter="url(#m)"/><ellipse transform="translate(-3.7 172.6) scale(.44242)" ry="23.2" rx="23.8" cy="128" cx="110.4" fill="#f8ffff" fill-opacity=".8" filter="url(#n)"/><path d="M38.6 219c-2.4 1-3.2 3.6-3.2 3.6-1.5 10.4 40.6 11.1 35.8 0-1-1.8-2.4-3-4-3.8" transform="translate(-13 -58) scale(1.23982)" fill-opacity=".2" filter="url(#o)"/><ellipse transform="translate(35 197.8) scale(.29406)" ry="23.2" rx="23.8" cy="128" cx="110.4" fill="#f8ffff" fill-opacity=".8" filter="url(#p)"/><path d="M34.9 212.6c-3 1.1-4 4.4-4 4.4-1.8 12.9 50.4 13.9 44.4.1-1.3-2.3-3-3.7-5-4.8" fill="url(#q)"/><ellipse transform="translate(31.3 225.4) scale(.16468)" ry="23.2" rx="23.8" cy="128" cx="110.4" fill="#f8ffff" fill-opacity=".8" filter="url(#r)"/></g></svg>